<svg width="512" height="342" viewBox="0 0 512 342" fill="none" xmlns="http://www.w3.org/2000/svg">
<g clip-path="url(#clip0_207_2)">
<path d="M247.576 273.082C255.285 260.23 260.373 247.78 272.926 237.231C274.563 235.855 278.574 231.905 280.871 232.002L281.236 232.387C280.902 234.118 276.351 239.133 275.006 240.975C267.553 251.176 263.241 260.02 263.051 271.96C264.301 270.316 265.301 268.347 266.366 266.601C269.741 261.07 274.064 255.72 280.475 252.418C282.188 251.536 285.765 249.641 287.708 249.911L288.012 250.262C287.731 251.033 285.117 254.155 284.41 255.062C280.486 260.106 278.458 266.032 278.592 272.064C280.176 269.401 281.708 266.684 283.725 264.238C285.353 262.264 291.854 256.038 294.502 256.264C294.857 256.773 294.883 256.994 294.603 257.71C292.224 263.785 290.824 266.576 292.674 273.376L292.928 273.134C299.664 266.674 300.64 250.563 299.955 242.358C299.909 241.809 300.03 241.521 300.452 241.164C301.722 241.431 302.186 242.098 302.883 243.069C308.31 250.631 309.346 259.782 308.078 268.407C311.976 257.179 320.975 244.922 333.281 238.852C334.17 238.413 335.734 237.618 336.606 237.81C337.479 239.42 331.598 244.661 330.367 246.434C325.087 254.037 322.256 261.485 321.488 270.267C322.536 268.326 326.024 261.529 328.604 261.229C330.158 262.574 329.887 269.137 331.288 270.618C332.282 268.616 332.823 265.876 333.481 263.689C335.109 258.204 338.27 253.128 342.701 248.886C343.863 247.766 346.821 244.741 348.569 245.361C348.695 245.817 348.759 245.991 348.49 246.439C344.135 253.73 342.246 260.568 342.005 268.853C343.243 266.507 347.91 258.23 351.13 258.089C351.319 258.234 351.505 258.379 351.69 258.523C352.818 263.101 352.664 267.936 353.434 272.6C357.647 260.384 366.816 238.827 382.712 234.459C380.798 237.167 378.561 239.482 376.695 242.184C371.097 250.303 367.033 259.973 366.284 269.368C369.862 263.134 375.094 254.857 382.822 251.671C379.788 259.663 377.78 264.562 379.177 273.053C381.126 270.901 382.736 268.281 384.306 265.908C389.06 258.722 394.003 251.372 402.265 246.644C404.115 245.586 407.512 243.56 409.848 244.062C410.38 245.402 404.533 250.372 403.393 251.786C398.158 258.274 394.777 265.306 393.64 273.1C397.377 267.63 401.425 262.532 407.185 258.406C408.775 257.269 413.663 253.98 415.726 254.559C415.975 255.625 413.659 257.978 412.791 259.172C411.209 261.342 404.904 273.375 407.788 274.889C414.756 272.138 420.338 253.17 439.43 246.894C437.714 249.188 435.729 251.143 434.084 253.371C428.217 261.307 425.862 266.557 425.01 275.699C429.2 268.583 434.143 261.95 443.087 258.465C443.774 258.196 444.097 258.223 444.72 258.457C445.028 259.608 441.035 265.019 440.345 267.215C439.004 271.462 438.286 274.654 438.4 279.047L438.637 278.807C440.59 276.789 442.468 274.036 444.026 271.767C447.92 266.105 451.925 260.32 458.182 256.257C460.371 254.833 466.136 251 468.795 251.292C469.11 252.576 464.175 256.496 463.042 257.786C458.541 262.903 453.203 271.971 454.201 278.432L454.528 278.708C455.211 278.162 457.756 274.211 458.442 273.131C460.052 270.6 467.244 262.927 470.326 262.697L470.842 263.157C469.355 270.105 467.643 272.49 467.071 280.409C472.353 274.458 482.848 259.578 492.435 258.271L493.078 258.425C493.37 259.62 489.338 263.363 488.32 264.619C484.012 269.821 481.55 275.95 481.219 282.289C486.73 275.879 492.044 270.264 502.018 268.489C502.78 268.354 503.229 268.366 503.892 268.672L503.928 269.023C502.902 269.856 501.829 270.776 500.74 271.548C496.207 274.766 494.143 279.439 491.898 283.981C516 283.981 536.5 283.981 557 289.676V342H-49V289.676C-30.0625 289.676 -16.948 286.651 0 283.409C4.5 283.409 10.5 283.409 15.5055 283.409C13.7912 277.912 11.4781 273.111 7.24596 268.548C5.98149 267.185 3.63955 265.87 2.55341 264.348C2.82879 264.074 2.84181 263.941 3.25725 264.017C10.3359 265.321 19.8646 271.733 24.3868 275.718C25.8394 277.004 27.2416 278.33 28.5909 279.694C27.663 273.446 26.5555 268.78 23.3937 262.971C22.583 261.481 18.5591 255.551 18.3666 254.709C20.7811 253.341 26.546 259.087 28.1632 260.103C31.8852 262.442 42.0681 278.973 44.1118 279.683C47.8886 278.027 42.8504 262.238 40.1941 259.66C39.6496 259.132 37.0745 255.398 36.9853 254.993L37.4205 254.523C41.6104 254.117 50.6961 264.89 52.7931 267.882C53.8212 269.349 56.8902 275.718 57.8052 276.193C59.2894 274.885 60.0228 270.033 59.9577 268.175C59.777 263.019 57.933 258.431 54.5037 254.122C53.6922 253.101 50.7462 249.999 50.0838 248.773C50.1962 248.658 50.3091 248.542 50.4215 248.426C51.9779 248.269 52.8167 248.779 54.0409 249.485C64.9703 255.783 70.0948 265.539 72.8001 276.118C73.038 271.88 72.8218 267.866 71.6248 263.734C71.3873 262.913 70.7395 261.671 70.9383 260.895C74.7677 260.124 80.2382 270.681 81.5114 273.245C80.9006 265.252 79.9427 259.471 75.434 252.145C74.6303 250.84 71.7459 247.693 71.9503 247.143C72.6486 246.937 72.9808 246.895 73.7549 247.263C81.5133 250.951 86.7058 259.748 89.1953 266.527C90.0333 268.764 90.6404 271.059 91.0093 273.384C91.4764 270.412 94.3798 256.243 97.2417 254.945C98.8522 255.803 98.9607 258.643 99.6673 260.27C100.803 262.885 105.914 273.551 109.186 273.334C110.285 272.37 110.245 268.566 110.207 267.259C109.944 258.192 104.356 250.275 97.1241 243.869C96.6341 243.435 96.5663 242.975 96.5525 242.393C97.2019 242.106 97.6939 242.076 98.4932 242.354C106.232 245.049 112.331 250.978 116.051 257.108C118.628 261.352 119.51 264.814 120.978 269.076C121.121 266.557 120.774 258.756 121.727 257.149L122.249 256.827C126.027 257.378 130.45 265.6 131.5 268.429C131.573 262.271 130.5 256.314 126.845 250.919C126.064 249.767 124.604 247.981 125.269 246.946C126.304 246.846 127.386 247.556 128.18 248.11C138.184 255.089 141.14 261.916 144.195 272.021C146.308 266.815 147.238 259.918 146.944 254.411C146.886 253.325 146.481 251.639 147.448 251.171C152.401 252.77 158.381 267.628 159.81 271.727C160.617 257.747 157.261 249.115 146.135 238.148C144.522 236.558 141.273 234.851 141.2 233.314C141.724 233.015 142.206 232.765 142.887 232.996C156.182 237.497 165.061 250.922 169.641 261.517C173.14 251.461 182.754 239.452 193.701 234.339C194.31 234.058 194.931 233.796 195.563 233.555C193.523 236.187 190.963 238.442 189.002 241.11C181.609 251.169 178.028 260.237 179.875 271.99C183.873 263.403 190.848 252.095 200.339 246.272C200.476 246.189 200.871 246.19 201.036 246.19L201.496 246.579C201.055 248.151 198.954 251.276 198.095 253.053C195.149 259.178 193.608 265.72 193.555 272.33C195.102 269.548 199.823 261.636 204.113 262.323C205.977 263.585 206.624 270.192 207.355 272.522C210.147 268.976 210.506 266.568 209.8 262.415C209.258 259.227 206.023 256.384 205.935 254.478C208.041 252.705 215.015 257.903 216.41 259.248C220.235 262.932 221.925 267.168 223.506 271.782C226.187 261.296 225.747 253.96 221.174 243.692C220.621 242.451 218.004 238.115 218.701 237.207C220.035 237.23 222.544 239.092 223.348 239.9C231.077 247.658 234.258 256.862 234.882 266.62C236.574 259.422 239.407 252.106 244.514 246.091C245.997 244.345 248.706 241.205 251.199 240.676L251.794 240.87C251.477 242.232 249.53 245.978 248.937 247.669C245.756 256.737 243.92 263.953 247.576 273.082Z" fill="#BFBEBE"/>
<path d="M443.85 16.4537C473.284 14.7747 498.496 37.3397 500.147 66.8391C501.798 96.3383 479.262 121.588 449.826 123.218C420.424 124.847 395.266 102.293 393.617 72.8278C391.967 43.3627 414.451 18.1306 443.85 16.4537Z" fill="#D5D5D5"/>
<path d="M436.037 33.4131C452.543 32.4008 449.592 55.5132 434.056 57.8277C417.51 58.6547 419.935 35.4394 436.037 33.4131Z" fill="#BFBEBE"/>
<path d="M473.685 74.9532C487.514 73.9138 482.927 96.5369 469.861 100.03C454.739 100.296 461.21 78.7776 473.685 74.9532Z" fill="#BFBEBE"/>
<path d="M411.509 66.8979C412.419 66.9808 412.547 66.9941 413.358 67.4089C414.385 68.5485 414.735 77.4118 415.85 80.2169C417.075 83.2966 423.469 90.7801 417.55 91.3392C410.189 87.8992 404.619 71.4739 411.509 66.8979Z" fill="#BFBEBE"/>
<path d="M471.421 38.5347C478.459 38.8005 486.142 52.415 481.823 57.6913C481.168 57.713 480.34 57.8085 479.817 57.4342C478.688 56.6252 477.532 51.6993 477.228 50.317C476.347 46.3152 470.434 43.1958 470.259 40.3525C470.482 39.4277 470.78 39.2043 471.421 38.5347Z" fill="#BFBEBE"/>
<path d="M438.733 104.045C440.414 103.994 442.085 104.322 443.623 105.003C448.021 106.961 449.687 110.757 443.708 112.278C441.428 112.362 439.267 112.338 437.219 111.14C432.427 108.335 433.349 105.032 438.733 104.045Z" fill="#BFBEBE"/>
<path d="M95.0202 49.706C104.242 48.4201 113.689 52.4807 119.105 60.0374C122.028 64.1144 123.217 67.8473 124.42 72.6066C126.261 72.3103 127.901 72.1206 129.763 71.9931C139.605 71.3241 149.156 78.5916 149.518 88.7881C149.862 95.8268 144.996 101.618 138.193 103.062C133.153 104.132 127.275 103.948 122.071 104.018C114.589 104.128 107.107 104.193 99.6249 104.215C91.1182 104.239 82.6119 104.206 74.1056 104.115C69.3206 104.06 64.7083 104.05 59.9336 103.721C49.4763 102.998 42.7383 94.9037 45.8243 84.4142C47.3533 79.3457 50.8276 75.0928 55.4836 72.5899C61.1163 69.5837 66.4549 69.765 72.3629 71.5415C74.3673 59.3631 82.9556 51.5045 95.0202 49.706Z" fill="#D5D5D5"/>
<path d="M284.106 77.5302C288.833 76.9898 295.156 78.9266 299.006 81.6662C305.11 86.0097 308.3 91.5498 309.673 98.7619C310.513 98.7178 311.353 98.68 312.196 98.6483C321.29 98.3153 331.316 102.759 331.456 113.112C331.51 116.619 330.16 120 327.71 122.503C322.3 127.977 312.623 127.008 305.446 127.033L286.686 127.086C278.176 127.157 269.593 127.025 261.073 127.028C254.706 126.964 247.413 127.415 242.58 122.415C237.57 117.229 238.43 108.833 243.606 104.077C248.51 99.5731 251.147 98.5932 257.5 98.7619C260.25 86.3908 271.25 78.4379 284.106 77.5302Z" fill="#D5D5D5"/>
<path d="M297.607 143.06C298.699 142.677 299.915 142.912 300.783 143.677C301.655 144.442 302.042 145.616 301.802 146.749C301.561 147.882 300.73 148.797 299.624 149.142C297.954 149.663 296.178 148.751 295.627 147.092C295.075 145.433 295.957 143.64 297.607 143.06Z" fill="#D8D8D4"/>
<path d="M186.145 79.1811C187.237 78.7973 188.452 79.0331 189.321 79.7979C190.192 80.5624 190.58 81.7367 190.339 82.8696C190.099 84.0025 189.267 84.9172 188.162 85.2626C186.492 85.7836 184.715 84.8718 184.164 83.2129C183.613 81.554 184.495 79.7602 186.145 79.1811Z" fill="#D8D8D4"/>
<path d="M257.048 56.8588C258.141 56.475 259.356 56.7108 260.225 57.4757C261.096 58.2401 261.484 59.4144 261.243 60.5473C261.003 61.6802 260.171 62.595 259.066 62.9403C257.396 63.4613 255.619 62.5495 255.068 60.8906C254.517 59.2317 255.399 57.4379 257.048 56.8588Z" fill="#D8D8D4"/>
<path d="M490.145 11.1811C491.237 10.7973 492.452 11.0331 493.321 11.7979C494.192 12.5624 494.58 13.7367 494.339 14.8696C494.099 16.0025 493.267 16.9172 492.162 17.2626C490.492 17.7836 488.715 16.8718 488.164 15.2129C487.613 13.554 488.495 11.7602 490.145 11.1811Z" fill="#D8D8D4"/>
<path d="M503.145 124.181C504.237 123.797 505.452 124.033 506.321 124.798C507.192 125.562 507.58 126.737 507.339 127.87C507.099 129.002 506.267 129.917 505.162 130.263C503.492 130.784 501.715 129.872 501.164 128.213C500.613 126.554 501.495 124.76 503.145 124.181Z" fill="#D8D8D4"/>
<path d="M433.145 135.181C434.237 134.797 435.452 135.033 436.321 135.798C437.192 136.562 437.58 137.737 437.339 138.87C437.099 140.002 436.267 140.917 435.162 141.263C433.492 141.784 431.715 140.872 431.164 139.213C430.613 137.554 431.495 135.76 433.145 135.181Z" fill="#D8D8D4"/>
<path d="M366.145 68.1811C367.237 67.7973 368.452 68.0331 369.321 68.7979C370.192 69.5624 370.58 70.7367 370.339 71.8696C370.099 73.0025 369.267 73.9172 368.162 74.2626C366.492 74.7836 364.715 73.8718 364.164 72.2129C363.613 70.554 364.495 68.7602 366.145 68.1811Z" fill="#D8D8D4"/>
<path d="M136.37 122.583C137.928 121.857 139.78 122.518 140.526 124.066C141.272 125.614 140.635 127.475 139.097 128.241C138.084 128.746 136.878 128.666 135.939 128.033C135.001 127.4 134.476 126.311 134.565 125.183C134.655 124.054 135.344 123.061 136.37 122.583Z" fill="#D8D8D4"/>
<path d="M163.815 31.2943C165.372 30.5689 167.224 31.2299 167.97 32.7779C168.716 34.3259 168.08 36.1862 166.542 36.9523C165.528 37.4573 164.322 37.3778 163.384 36.7446C162.446 36.1117 161.921 35.0226 162.01 33.894C162.099 32.7655 162.788 31.7726 163.815 31.2943Z" fill="#D8D8D4"/>
<path d="M16.8147 62.2943C18.3724 61.5689 20.224 62.2299 20.9701 63.7779C21.7162 65.3259 21.0797 67.1862 19.5417 67.9523C18.5283 68.4573 17.322 68.3778 16.3838 67.7446C15.4456 67.1117 14.9206 66.0226 15.0098 64.894C15.099 63.7655 15.7883 62.7726 16.8147 62.2943Z" fill="#D8D8D4"/>
<path d="M87.8147 5.29432C89.3724 4.56891 91.224 5.22986 91.9701 6.77787C92.7162 8.32589 92.0797 10.1862 90.5417 10.9523C89.5283 11.4573 88.322 11.3778 87.3838 10.7446C86.4456 10.1117 85.9206 9.02258 86.0098 7.89405C86.099 6.76552 86.7883 5.77258 87.8147 5.29432Z" fill="#D8D8D4"/>
<path d="M225.189 16.7887C226.838 16.2408 228.618 17.1391 229.157 18.7912C229.696 20.4433 228.789 22.2188 227.134 22.7494C225.491 23.276 223.732 22.3766 223.196 20.7366C222.661 19.0967 223.551 17.3325 225.189 16.7887Z" fill="#D8D8D4"/>
<path d="M5.16662 19.095C6.72133 18.6885 8.3101 19.6247 8.70821 21.1818C9.10632 22.7389 8.16147 24.3225 6.60209 24.7121C5.05473 25.0987 3.486 24.1627 3.0909 22.6175C2.69613 21.0723 3.62361 19.4983 5.16662 19.095Z" fill="#D8D8D4"/>
<path d="M392.843 4.18776C394.282 3.64053 395.895 4.3284 396.497 5.74493C397.094 7.16152 396.47 8.79938 395.077 9.45299C394.129 9.89819 393.01 9.78898 392.168 9.16843C391.323 8.54822 390.886 7.51555 391.026 6.47719C391.166 5.43877 391.864 4.56049 392.843 4.18776Z" fill="#D8D8D4"/>
<path d="M325.843 33.1878C327.282 32.6405 328.895 33.3284 329.497 34.7449C330.094 36.1615 329.47 37.7994 328.077 38.453C327.129 38.8982 326.01 38.789 325.168 38.1684C324.323 37.5482 323.886 36.5155 324.026 35.4772C324.166 34.4388 324.864 33.5605 325.843 33.1878Z" fill="#D8D8D4"/>
<path d="M35.93 130.324C37.4182 129.863 38.998 130.696 39.4589 132.184C39.9198 133.672 39.0871 135.252 37.5989 135.713C36.1107 136.174 34.5309 135.341 34.07 133.853C33.6091 132.365 34.4417 130.785 35.93 130.324Z" fill="#D8D8D4"/>
</g>
<defs>
<clipPath id="clip0_207_2">
<rect width="512" height="342" fill="white"/>
</clipPath>
</defs>
</svg>
