<svg width="1920" height="1080" viewBox="0 0 1920 1080" fill="none" xmlns="http://www.w3.org/2000/svg">
<path d="M400.911 636.668C386.056 648.006 368.582 655.695 351.252 638.95C337.985 627.247 334.9 613.096 337.053 606.24C339.206 599.384 358.932 590.518 375.087 605.012C387.178 614.462 395.942 628.515 400.911 636.668Z" fill="url(#paint0_linear_1376_34)"/>
<path d="M1373.81 392.947C1357.35 384.115 1338.87 379.301 1324.42 398.589C1313.19 412.252 1312.39 426.714 1315.6 433.141C1318.82 439.567 1339.7 445.184 1353.35 428.306C1363.78 417.054 1370.2 401.786 1373.81 392.947Z" fill="url(#paint1_linear_1376_34)"/>
<path d="M1775.98 86.8848C1792.44 78.0528 1810.92 73.2388 1825.37 92.5268C1836.61 106.19 1837.4 120.652 1834.19 127.078C1830.97 133.505 1810.09 139.122 1796.44 122.244C1786.01 110.992 1779.59 95.7241 1775.98 86.8848Z" fill="url(#paint2_linear_1376_34)"/>
<path d="M727.185 217.911C743.653 209.079 762.127 204.265 776.576 223.553C787.815 237.216 788.613 251.679 785.398 258.105C782.183 264.532 761.3 270.148 747.653 253.271C737.216 242.019 730.796 226.751 727.185 217.911Z" fill="url(#paint3_linear_1376_34)"/>
<path d="M1702.87 363.234C1691.35 348.513 1683.45 331.128 1699.98 313.587C1711.51 300.173 1725.62 296.913 1732.5 298.982C1739.37 301.052 1748.48 320.675 1734.19 337.013C1724.89 349.225 1710.95 358.163 1702.87 363.234Z" fill="url(#paint4_linear_1376_34)"/>
<path d="M165.709 963.963C181.453 953.897 199.505 947.685 215.386 965.811C227.636 978.574 229.537 992.934 226.823 999.587C224.108 1006.24 203.715 1013.44 188.818 997.654C177.552 987.233 169.985 972.5 165.709 963.963Z" fill="url(#paint5_linear_1376_34)"/>
<path d="M158.005 296.735C175.565 303.122 191.47 313.684 186.738 337.318C184.055 354.807 173.814 365.046 166.883 366.935C159.952 368.824 141.843 357.001 145.314 335.572C146.736 320.288 153.828 305.321 158.005 296.735Z" fill="url(#paint6_linear_1376_34)"/>
<path d="M758.563 618.004C740.019 620.291 721.054 618.106 714.543 594.899C708.994 578.098 713.471 564.324 718.789 559.492C724.107 554.661 745.608 556.968 752.242 577.637C757.912 591.9 758.387 608.457 758.563 618.004Z" fill="url(#paint7_linear_1376_34)"/>
<path d="M1181.48 68.8924C1162.94 71.1791 1143.97 68.9942 1137.46 45.7875C1131.91 28.9864 1136.39 15.2117 1141.7 10.3804C1147.02 5.54909 1168.52 7.85619 1175.16 28.525C1180.83 42.7883 1181.3 59.3451 1181.48 68.8924Z" fill="url(#paint8_linear_1376_34)"/>
<path d="M1023.53 328.171C1042.22 328.239 1060.76 332.796 1064.29 356.638C1067.68 374.004 1061.51 387.105 1055.62 391.228C1049.74 395.351 1028.7 390.353 1024.72 369.013C1020.89 354.149 1022.51 337.665 1023.53 328.171Z" fill="url(#paint9_linear_1376_34)"/>
<path d="M624.07 86.5052C606.704 93.402 587.802 96.0781 575.645 75.2681C566.036 60.4128 566.891 45.9536 570.817 39.9356C574.743 33.9177 596.13 30.7189 607.766 49.0425C616.852 61.4114 621.49 77.3118 624.07 86.5052Z" fill="url(#paint10_linear_1376_34)"/>
<path d="M434.518 180.975C448.913 192.892 460.348 208.185 447.954 228.855C439.555 244.427 426.471 250.629 419.308 250.079C412.146 249.529 399.059 232.307 409.524 213.29C415.996 199.373 427.701 187.659 434.518 180.975Z" fill="url(#paint11_linear_1376_34)"/>
<path d="M480.064 448.836C490.839 452.429 505.206 465.005 498.023 486.564C493.533 500.937 483.656 513.513 476.473 515.309C471.085 513.513 460.31 502.733 463.902 486.564C467.493 470.395 474.677 454.226 480.064 448.836Z" fill="url(#paint12_linear_1376_34)"/>
<path d="M1081.2 798.391C1074.41 807.498 1057.96 817.198 1039.76 803.609C1027.52 794.834 1018.69 781.505 1019.24 774.118C1022.63 769.564 1036.24 762.713 1050.46 771.199C1064.68 779.685 1077.77 791.582 1081.2 798.391Z" fill="url(#paint13_linear_1376_34)"/>
<path d="M1457.4 280.497C1465.72 279.731 1480.78 285.403 1487.47 306.504C1492.11 320.465 1492.6 334.808 1489.19 338.922C1485.03 339.305 1473.05 333.893 1466.95 318.709C1460.85 303.525 1456.91 287.057 1457.4 280.497Z" fill="url(#paint14_linear_1376_34)"/>
<path d="M1187.92 916.3C1196.24 915.535 1211.3 921.206 1217.99 942.308C1222.63 956.269 1223.11 970.612 1219.71 974.726C1215.55 975.109 1203.57 969.697 1197.47 954.513C1191.37 939.329 1187.43 922.861 1187.92 916.3Z" fill="url(#paint15_linear_1376_34)"/>
<path d="M677.204 1055.07C670.321 1059.8 654.406 1062.22 638.264 1047.08C627.398 1037.16 619.973 1024.88 620.933 1019.63C624.375 1017.26 637.477 1016.13 650.212 1026.4C662.948 1036.66 674.426 1049.11 677.204 1055.07Z" fill="url(#paint16_linear_1376_34)"/>
<path d="M251.287 450.252C256.388 443.637 270.797 436.458 290.802 445.922C304.183 452.025 315.013 461.437 315.708 466.732C313.157 470.039 301.034 475.139 285.765 469.271C270.497 463.402 255.758 455.076 251.287 450.252Z" fill="url(#paint17_linear_1376_34)"/>
<path d="M0 501.996C3.5917 491.217 16.1627 476.844 37.7129 484.031C52.0797 488.522 64.6507 498.403 66.4465 505.589C64.6507 510.979 53.8756 521.759 37.7129 518.165C21.5502 514.572 5.38756 507.386 0 501.996Z" fill="url(#paint18_linear_1376_34)"/>
<path d="M1351.19 1060.1C1347.6 1070.88 1335.03 1085.25 1313.48 1078.07C1299.11 1073.57 1286.54 1063.69 1284.74 1056.51C1286.54 1051.12 1297.32 1040.34 1313.48 1043.93C1329.64 1047.52 1345.8 1054.71 1351.19 1060.1Z" fill="url(#paint19_linear_1376_34)"/>
<path d="M1388.04 862.685C1393.67 852.82 1408.82 841.195 1428.54 852.473C1441.75 859.698 1452.14 871.855 1452.49 879.254C1449.67 884.186 1436.99 892.641 1421.85 885.944C1406.7 879.247 1392.26 869.027 1388.04 862.685Z" fill="url(#paint20_linear_1376_34)"/>
<path d="M1599.57 778.861C1588.89 774.992 1574.85 762.052 1582.59 740.684C1587.44 726.432 1597.64 714.113 1604.87 712.502C1610.21 714.436 1620.7 725.489 1616.7 741.56C1612.69 757.632 1605.1 773.611 1599.57 778.861Z" fill="url(#paint21_linear_1376_34)"/>
<path d="M883.701 696.589C875.596 688.629 868.206 671.02 884.121 654.804C894.462 643.862 908.855 636.901 916.098 638.441C920.15 642.422 925.101 656.839 914.779 669.789C904.456 682.74 890.907 694.113 883.701 696.589Z" fill="url(#paint22_linear_1376_34)"/>
<path d="M560.376 691.695C560.501 708.666 559.628 724.521 542.373 729.932C529.46 733.461 520.125 729.766 515.25 722.075C512.371 716.615 513.952 707.16 524.984 699.286C535.458 691.912 549.926 688.998 560.376 691.695Z" fill="url(#paint23_linear_1376_34)"/>
<path d="M1506.89 536.51C1519.85 547.465 1531.31 558.453 1524.18 575.077C1518.45 587.179 1509.56 591.86 1500.56 590.554C1494.54 589.185 1488.39 581.828 1489.6 568.325C1490.83 555.57 1498.04 542.688 1506.89 536.51Z" fill="url(#paint24_linear_1376_34)"/>
<path d="M1236.09 211.119C1252.37 215.907 1267.29 221.328 1267.47 239.417C1267.12 252.803 1260.88 260.674 1252.11 263.119C1246.06 264.298 1237.47 260.05 1233.12 247.208C1229.09 235.045 1230.49 220.347 1236.09 211.119Z" fill="url(#paint25_linear_1376_34)"/>
<path d="M1768.04 569.032C1776.61 554.388 1785.47 541.213 1803.06 545.399C1815.96 548.977 1822.09 556.931 1822.35 566.034C1822.03 572.199 1815.83 579.513 1802.33 580.63C1789.55 581.603 1775.63 576.699 1768.04 569.032Z" fill="url(#paint26_linear_1376_34)"/>
<path d="M1370.64 128.248C1387.46 130.512 1403.29 131.644 1410.83 115.201C1415.96 102.832 1413.47 93.1018 1406.46 87.2938C1401.41 83.7487 1391.83 84.1255 1382.63 94.0812C1374 103.547 1369.29 117.538 1370.64 128.248Z" fill="url(#paint27_linear_1376_34)"/>
<path d="M1597.87 935.592C1610.83 946.547 1622.29 957.535 1615.16 974.159C1609.43 986.26 1600.55 990.942 1591.54 989.636C1585.52 988.266 1579.38 980.91 1580.59 967.407C1581.81 954.652 1589.02 941.77 1597.87 935.592Z" fill="url(#paint28_linear_1376_34)"/>
<path d="M219.533 131.664C236.437 130.23 252.307 129.878 259.03 146.671C263.543 159.277 260.581 168.873 253.292 174.33C248.073 177.622 238.528 176.775 229.83 166.379C221.672 156.5 217.652 142.295 219.533 131.664Z" fill="url(#paint29_linear_1376_34)"/>
<path d="M479.18 913.186C497.887 923.666 509.111 940.135 500.132 957.352C492.649 968.58 480.677 974.569 471.697 974.569C462.718 974.569 452.991 964.838 456.732 946.123C460.473 931.152 470.201 919.175 479.18 913.186Z" fill="url(#paint30_linear_1376_34)"/>
<path d="M1835.53 1019.96C1829.23 1040.46 1815.51 1054.91 1796.79 1049.76C1784.24 1044.8 1775.87 1034.36 1773.98 1025.58C1772.08 1016.8 1779.54 1005.23 1798.62 1004.95C1814.04 1005.45 1827.79 1012.44 1835.53 1019.96Z" fill="url(#paint31_linear_1376_34)"/>
<path d="M1137.47 584.901C1116.25 587.973 1097.32 581.737 1093.98 562.608C1093.08 549.142 1098.94 537.102 1106.07 531.636C1113.19 526.17 1126.83 527.97 1135.25 545.099C1141.38 559.257 1140.95 574.683 1137.47 584.901Z" fill="url(#paint32_linear_1376_34)"/>
<path d="M711.951 874.321C693.606 863.221 682.939 846.385 692.49 829.479C700.344 818.507 712.51 812.923 721.484 813.224C730.459 813.524 739.855 823.576 735.489 842.155C731.249 856.993 721.126 868.637 711.951 874.321Z" fill="url(#paint33_linear_1376_34)"/>
<path d="M1896.73 384.447C1878.02 373.967 1866.8 357.498 1875.78 340.281C1883.26 329.052 1895.23 323.064 1904.21 323.064C1913.19 323.064 1922.92 332.795 1919.18 351.51C1915.44 366.481 1905.71 378.458 1896.73 384.447Z" fill="url(#paint34_linear_1376_34)"/>
<path d="M1767.74 845.784C1746.74 850.111 1727.48 845.01 1723 826.114C1721.31 812.725 1726.45 800.358 1733.23 794.478C1740.02 788.598 1753.74 789.586 1763.16 806.184C1770.13 819.952 1770.61 835.377 1767.74 845.784Z" fill="url(#paint35_linear_1376_34)"/>
<path d="M945.29 965.945C917.415 971.511 880.904 961.344 875.288 936.319C873.272 918.599 891.367 905.557 900.452 897.831C909.536 890.105 923.908 894.607 936.101 916.63C945.098 934.891 949.261 952.202 945.29 965.945Z" fill="url(#paint36_linear_1376_34)"/>
<path d="M248.909 828.442C268.282 807.634 303.853 794.547 323.024 811.577C335.008 824.78 327.937 845.94 325.076 857.52C322.214 869.1 307.921 873.845 285.165 863.097C267.199 853.533 253.711 841.917 248.909 828.442Z" fill="url(#paint37_linear_1376_34)"/>
<path d="M1292.78 637.744C1318.69 649.422 1342.5 678.924 1332.53 702.553C1323.88 718.146 1301.58 718.238 1289.69 719.243C1277.81 720.248 1268.73 708.229 1271.61 683.218C1274.89 663.126 1281.56 646.619 1292.78 637.744Z" fill="url(#paint38_linear_1376_34)"/>
<path d="M606.131 343.34C634.5 341.57 669.316 356.55 671.52 382.103C671.14 399.934 651.458 410.426 641.418 416.861C631.379 423.297 617.742 416.905 608.616 393.444C602.152 374.138 600.35 356.425 606.131 343.34Z" fill="url(#paint39_linear_1376_34)"/>
<path d="M1572.61 152.301C1600.98 150.531 1635.79 165.511 1638 191.064C1637.62 208.895 1617.94 219.387 1607.9 225.822C1597.86 232.257 1584.22 225.866 1575.09 202.404C1568.63 183.099 1566.83 165.386 1572.61 152.301Z" fill="url(#paint40_linear_1376_34)"/>
<path d="M929.957 157.404C933.723 129.219 955.166 97.9558 980.651 100.748C998.063 104.581 1004.53 125.931 1008.9 137.032C1013.26 148.134 1004.35 160.277 979.571 164.683C959.386 167.282 941.667 165.615 929.957 157.404Z" fill="url(#paint41_linear_1376_34)"/>
<path d="M867.217 441.558C880.083 432.784 894.966 427.163 908.642 441.87C919.161 452.198 921.099 464.112 919.002 469.721C916.905 475.33 900.096 481.829 887.298 469.05C877.657 460.648 870.989 448.563 867.217 441.558Z" fill="url(#paint42_linear_1376_34)"/>
<path d="M46.3625 89.0768C58.0456 89.4253 72.0988 93.8718 77.2248 108.408C82.2221 120.83 80.7531 131.526 73.6811 137.26C67.601 141.873 55.7891 139.411 48.808 129.231C41.8269 119.05 40.9259 104.257 46.3625 89.0768Z" fill="url(#paint43_linear_1376_34)"/>
<path d="M169.338 571.175C181.021 571.523 195.074 575.97 200.2 590.506C205.198 602.929 203.729 613.624 196.657 619.358C190.577 623.971 178.765 621.509 171.784 611.329C164.802 601.148 163.901 586.355 169.338 571.175Z" fill="url(#paint44_linear_1376_34)"/>
<path d="M1608.36 517.462C1610.06 505.893 1616.1 492.445 1631.13 489.035C1644.04 485.509 1654.49 488.208 1659.36 495.9C1663.24 502.476 1659.43 513.928 1648.51 519.685C1637.59 525.442 1622.8 524.623 1608.36 517.462Z" fill="url(#paint45_linear_1376_34)"/>
<path d="M72.2303 769.225C64.81 778.259 58.9173 791.775 66.4931 805.197C72.5621 817.132 81.5826 823.059 90.5513 821.499C98.0235 819.95 103.937 809.429 100.861 797.473C97.785 785.517 87.2369 775.11 72.2303 769.225Z" fill="url(#paint46_linear_1376_34)"/>
<defs>
<linearGradient id="paint0_linear_1376_34" x1="408.497" y1="612.51" x2="346.854" y2="593.015" gradientUnits="userSpaceOnUse">
<stop offset="0.225962" stop-color="#FFD8FA"/>
<stop offset="1" stop-color="#FFB4EF"/>
</linearGradient>
<linearGradient id="paint1_linear_1376_34" x1="1385.14" y1="415.591" x2="1327.38" y2="444.634" gradientUnits="userSpaceOnUse">
<stop offset="0.225962" stop-color="#FFD8FA"/>
<stop offset="1" stop-color="#FFB4EF"/>
</linearGradient>
<linearGradient id="paint2_linear_1376_34" x1="1764.65" y1="109.529" x2="1822.42" y2="138.572" gradientUnits="userSpaceOnUse">
<stop offset="0.225962" stop-color="#FFD8FA"/>
<stop offset="1" stop-color="#FFB4EF"/>
</linearGradient>
<linearGradient id="paint3_linear_1376_34" x1="715.858" y1="240.556" x2="773.624" y2="269.598" gradientUnits="userSpaceOnUse">
<stop offset="0.225962" stop-color="#FFD8FA"/>
<stop offset="1" stop-color="#FFB4EF"/>
</linearGradient>
<linearGradient id="paint4_linear_1376_34" x1="1727.1" y1="370.527" x2="1745.86" y2="308.632" gradientUnits="userSpaceOnUse">
<stop stop-color="#FFB4EF"/>
<stop offset="0.774038" stop-color="#FFD8FA"/>
</linearGradient>
<linearGradient id="paint5_linear_1376_34" x1="156.145" y1="987.407" x2="215.96" y2="1011.95" gradientUnits="userSpaceOnUse">
<stop offset="0.225962" stop-color="#FFD8FA"/>
<stop offset="1" stop-color="#FFB4EF"/>
</linearGradient>
<linearGradient id="paint6_linear_1376_34" x1="133.583" y1="303.39" x2="150.463" y2="365.824" gradientUnits="userSpaceOnUse">
<stop offset="0.225962" stop-color="#FFD8FA"/>
<stop offset="1" stop-color="#FFB4EF"/>
</linearGradient>
<linearGradient id="paint7_linear_1376_34" x1="777.301" y1="600.981" x2="733.914" y2="553.032" gradientUnits="userSpaceOnUse">
<stop stop-color="#FFB4EF"/>
<stop offset="0.774038" stop-color="#FFD8FA"/>
</linearGradient>
<linearGradient id="paint8_linear_1376_34" x1="1200.22" y1="51.8689" x2="1156.83" y2="3.91984" gradientUnits="userSpaceOnUse">
<stop stop-color="#FFB4EF"/>
<stop offset="0.774038" stop-color="#FFD8FA"/>
</linearGradient>
<linearGradient id="paint9_linear_1376_34" x1="1002.8" y1="342.698" x2="1039.81" y2="395.733" gradientUnits="userSpaceOnUse">
<stop offset="0.225962" stop-color="#FFD8FA"/>
<stop offset="1" stop-color="#FFB4EF"/>
</linearGradient>
<linearGradient id="paint10_linear_1376_34" x1="637.904" y1="65.3004" x2="583.822" y2="29.8624" gradientUnits="userSpaceOnUse">
<stop stop-color="#FFB4EF"/>
<stop offset="0.774038" stop-color="#FFD8FA"/>
</linearGradient>
<linearGradient id="paint11_linear_1376_34" x1="409.281" y1="179.036" x2="404.198" y2="243.513" gradientUnits="userSpaceOnUse">
<stop offset="0.225962" stop-color="#FFD8FA"/>
<stop offset="1" stop-color="#FFB4EF"/>
</linearGradient>
<linearGradient id="paint12_linear_1376_34" x1="463.184" y1="448.836" x2="463.184" y2="515.309" gradientUnits="userSpaceOnUse">
<stop offset="0.3" stop-color="#FFD8FA"/>
<stop offset="1" stop-color="#FFB4EF"/>
</linearGradient>
<linearGradient id="paint13_linear_1376_34" x1="1086.5" y1="782.357" x2="1023.4" y2="761.51" gradientUnits="userSpaceOnUse">
<stop stop-color="#FFB4EF"/>
<stop offset="0.7" stop-color="#FFD8FA"/>
</linearGradient>
<linearGradient id="paint14_linear_1376_34" x1="1447.25" y1="286.535" x2="1481.22" y2="343.664" gradientUnits="userSpaceOnUse">
<stop offset="0.3" stop-color="#FFD8FA"/>
<stop offset="1" stop-color="#FFB4EF"/>
</linearGradient>
<linearGradient id="paint15_linear_1376_34" x1="1177.77" y1="922.339" x2="1211.74" y2="979.467" gradientUnits="userSpaceOnUse">
<stop offset="0.3" stop-color="#FFD8FA"/>
<stop offset="1" stop-color="#FFB4EF"/>
</linearGradient>
<linearGradient id="paint16_linear_1376_34" x1="683.115" y1="1044.84" x2="625.575" y2="1011.6" gradientUnits="userSpaceOnUse">
<stop stop-color="#FFB4EF"/>
<stop offset="0.7" stop-color="#FFD8FA"/>
</linearGradient>
<linearGradient id="paint17_linear_1376_34" x1="248.795" y1="461.804" x2="313.749" y2="475.814" gradientUnits="userSpaceOnUse">
<stop offset="0.3" stop-color="#FFD8FA"/>
<stop offset="1" stop-color="#FFB4EF"/>
</linearGradient>
<linearGradient id="paint18_linear_1376_34" x1="0" y1="518.884" x2="66.4465" y2="518.884" gradientUnits="userSpaceOnUse">
<stop offset="0.3" stop-color="#FFD8FA"/>
<stop offset="1" stop-color="#FFB4EF"/>
</linearGradient>
<linearGradient id="paint19_linear_1376_34" x1="1351.19" y1="1043.21" x2="1284.74" y2="1043.21" gradientUnits="userSpaceOnUse">
<stop stop-color="#FFB4EF"/>
<stop offset="0.7" stop-color="#FFD8FA"/>
</linearGradient>
<linearGradient id="paint20_linear_1376_34" x1="1384.72" y1="879.244" x2="1449.88" y2="892.28" gradientUnits="userSpaceOnUse">
<stop offset="0.3" stop-color="#FFD8FA"/>
<stop offset="1" stop-color="#FFB4EF"/>
</linearGradient>
<linearGradient id="paint21_linear_1376_34" x1="1616.45" y1="779.294" x2="1618.15" y2="712.843" gradientUnits="userSpaceOnUse">
<stop stop-color="#FFB4EF"/>
<stop offset="0.7" stop-color="#FFD8FA"/>
</linearGradient>
<linearGradient id="paint22_linear_1376_34" x1="898.868" y1="704.003" x2="928.057" y2="644.287" gradientUnits="userSpaceOnUse">
<stop stop-color="#FFB4EF"/>
<stop offset="0.7" stop-color="#FFD8FA"/>
</linearGradient>
<linearGradient id="paint23_linear_1376_34" x1="548.24" y1="678.138" x2="507.885" y2="714.264" gradientUnits="userSpaceOnUse">
<stop offset="0.3" stop-color="#FFD8FA"/>
<stop offset="1" stop-color="#FFB4EF"/>
</linearGradient>
<linearGradient id="paint24_linear_1376_34" x1="1488.7" y1="536.897" x2="1489.86" y2="591.06" gradientUnits="userSpaceOnUse">
<stop offset="0.3" stop-color="#FFD8FA"/>
<stop offset="1" stop-color="#FFB4EF"/>
</linearGradient>
<linearGradient id="paint25_linear_1376_34" x1="1219.61" y1="218.821" x2="1242.54" y2="267.898" gradientUnits="userSpaceOnUse">
<stop offset="0.3" stop-color="#FFD8FA"/>
<stop offset="1" stop-color="#FFB4EF"/>
</linearGradient>
<linearGradient id="paint26_linear_1376_34" x1="1771.53" y1="586.893" x2="1824.68" y2="576.503" gradientUnits="userSpaceOnUse">
<stop offset="0.3" stop-color="#FFD8FA"/>
<stop offset="1" stop-color="#FFB4EF"/>
</linearGradient>
<linearGradient id="paint27_linear_1376_34" x1="1358.73" y1="114.496" x2="1399.67" y2="79.0324" gradientUnits="userSpaceOnUse">
<stop offset="0.3" stop-color="#FFD8FA"/>
<stop offset="1" stop-color="#FFB4EF"/>
</linearGradient>
<linearGradient id="paint28_linear_1376_34" x1="1579.69" y1="935.979" x2="1580.84" y2="990.141" gradientUnits="userSpaceOnUse">
<stop offset="0.3" stop-color="#FFD8FA"/>
<stop offset="1" stop-color="#FFB4EF"/>
</linearGradient>
<linearGradient id="paint29_linear_1376_34" x1="206.959" y1="144.814" x2="246.106" y2="182.247" gradientUnits="userSpaceOnUse">
<stop offset="0.3" stop-color="#FFD8FA"/>
<stop offset="1" stop-color="#FFB4EF"/>
</linearGradient>
<linearGradient id="paint30_linear_1376_34" x1="455.909" y1="913.186" x2="455.909" y2="974.569" gradientUnits="userSpaceOnUse">
<stop offset="0.3" stop-color="#FFD8FA"/>
<stop offset="1" stop-color="#FFB4EF"/>
</linearGradient>
<linearGradient id="paint31_linear_1376_34" x1="1830.63" y1="997.203" x2="1770.65" y2="1010.13" gradientUnits="userSpaceOnUse">
<stop stop-color="#FFB4EF"/>
<stop offset="0.7" stop-color="#FFD8FA"/>
</linearGradient>
<linearGradient id="paint32_linear_1376_34" x1="1155.93" y1="570.735" x2="1118.58" y2="522.039" gradientUnits="userSpaceOnUse">
<stop stop-color="#FFB4EF"/>
<stop offset="0.7" stop-color="#FFD8FA"/>
</linearGradient>
<linearGradient id="paint33_linear_1376_34" x1="735.209" y1="875.101" x2="737.265" y2="813.753" gradientUnits="userSpaceOnUse">
<stop stop-color="#FFB4EF"/>
<stop offset="0.7" stop-color="#FFD8FA"/>
</linearGradient>
<linearGradient id="paint34_linear_1376_34" x1="1920" y1="384.447" x2="1920" y2="323.064" gradientUnits="userSpaceOnUse">
<stop stop-color="#FFB4EF"/>
<stop offset="0.870192" stop-color="#FFD8FA"/>
</linearGradient>
<linearGradient id="paint35_linear_1376_34" x1="1785.33" y1="830.546" x2="1745.15" y2="784.156" gradientUnits="userSpaceOnUse">
<stop stop-color="#FFB4EF"/>
<stop offset="0.870192" stop-color="#FFD8FA"/>
</linearGradient>
<linearGradient id="paint36_linear_1376_34" x1="968.834" y1="945.922" x2="916.4" y2="884.268" gradientUnits="userSpaceOnUse">
<stop stop-color="#FFB4EF"/>
<stop offset="0.889423" stop-color="#FFD8FA"/>
</linearGradient>
<linearGradient id="paint37_linear_1376_34" x1="241.493" y1="858.452" x2="320.048" y2="877.865" gradientUnits="userSpaceOnUse">
<stop offset="0.235577" stop-color="#FFD8FA"/>
<stop offset="1" stop-color="#FFB4EF"/>
</linearGradient>
<linearGradient id="paint38_linear_1376_34" x1="1261.99" y1="640.349" x2="1268.81" y2="721.009" gradientUnits="userSpaceOnUse">
<stop offset="0.3" stop-color="#FFD8FA"/>
<stop offset="1" stop-color="#FFB4EF"/>
</linearGradient>
<linearGradient id="paint39_linear_1376_34" x1="580.112" y1="360.018" x2="623.791" y2="428.16" gradientUnits="userSpaceOnUse">
<stop offset="0.3" stop-color="#FFD8FA"/>
<stop offset="1" stop-color="#FFB4EF"/>
</linearGradient>
<linearGradient id="paint40_linear_1376_34" x1="1546.59" y1="168.979" x2="1590.27" y2="237.121" gradientUnits="userSpaceOnUse">
<stop offset="0.3" stop-color="#FFD8FA"/>
<stop offset="1" stop-color="#FFB4EF"/>
</linearGradient>
<linearGradient id="paint41_linear_1376_34" x1="941.265" y1="186.173" x2="1016.58" y2="156.572" gradientUnits="userSpaceOnUse">
<stop offset="0.3" stop-color="#FFD8FA"/>
<stop offset="1" stop-color="#FFB4EF"/>
</linearGradient>
<linearGradient id="paint42_linear_1376_34" x1="859.829" y1="461.322" x2="914.503" y2="481.759" gradientUnits="userSpaceOnUse">
<stop offset="0.3" stop-color="#FFD8FA"/>
<stop offset="1" stop-color="#FFB4EF"/>
</linearGradient>
<linearGradient id="paint43_linear_1376_34" x1="26.9946" y1="110.967" x2="66.3992" y2="145.831" gradientUnits="userSpaceOnUse">
<stop offset="0.3" stop-color="#FFD8FA"/>
<stop offset="1" stop-color="#FFB4EF"/>
</linearGradient>
<linearGradient id="paint44_linear_1376_34" x1="149.97" y1="593.065" x2="189.375" y2="627.929" gradientUnits="userSpaceOnUse">
<stop offset="0.3" stop-color="#FFD8FA"/>
<stop offset="1" stop-color="#FFB4EF"/>
</linearGradient>
<linearGradient id="paint45_linear_1376_34" x1="1627.85" y1="539.244" x2="1667.06" y2="504.16" gradientUnits="userSpaceOnUse">
<stop offset="0.3" stop-color="#FFD8FA"/>
<stop offset="1" stop-color="#FFB4EF"/>
</linearGradient>
<linearGradient id="paint46_linear_1376_34" x1="101.451" y1="769.022" x2="101.816" y2="821.647" gradientUnits="userSpaceOnUse">
<stop offset="0.3" stop-color="#FFD8FA"/>
<stop offset="1" stop-color="#FFB4EF"/>
</linearGradient>
</defs>
</svg>
