<svg width="30" height="30" viewBox="0 0 41 41" fill="none" xmlns="http://www.w3.org/2000/svg">
<path d="M20.4355 33.8701C20.9635 33.8704 21.3916 34.2991 21.3916 34.8271V40.0449C21.3911 40.5726 20.9632 41.0007 20.4355 41.001C19.9076 41.001 19.479 40.5728 19.4785 40.0449V34.8271C19.4785 34.2989 19.9073 33.8701 20.4355 33.8701ZM9.71387 31.2871C10.0873 30.9141 10.692 30.914 11.0654 31.2871C11.4388 31.6605 11.4395 32.2661 11.0664 32.6396L7.37695 36.3291C7.00342 36.7026 6.39699 36.7026 6.02344 36.3291C5.65023 35.9555 5.65098 35.35 6.02441 34.9766L9.71387 31.2871ZM29.8818 31.2334C30.2554 30.8604 30.861 30.8611 31.2344 31.2344L34.9238 34.9238C35.2969 35.2973 35.2969 35.9029 34.9238 36.2764C34.5504 36.6496 33.9448 36.6495 33.5713 36.2764L29.8818 32.5869C29.5083 32.2134 29.5083 31.6069 29.8818 31.2334ZM20.5 8.91309C26.8992 8.91313 32.0868 14.1007 32.0869 20.5C32.0869 26.8993 26.8993 32.0869 20.5 32.0869C14.1007 32.0869 8.91309 26.8994 8.91309 20.5C8.91316 14.1007 14.1007 8.91309 20.5 8.91309ZM6.17383 19.4785C6.7021 19.4785 7.13086 19.9073 7.13086 20.4355C7.1306 20.9636 6.70195 21.3916 6.17383 21.3916H0.956055C0.428154 21.3913 0.00025499 20.9634 0 20.4355C0 19.9074 0.427997 19.4788 0.956055 19.4785H6.17383ZM40.0439 19.4785C40.572 19.4788 41.001 19.9074 41.001 20.4355C41.0007 20.9634 40.5718 21.3913 40.0439 21.3916H34.8262C34.2983 21.3913 33.8704 20.9634 33.8701 20.4355C33.8701 19.9074 34.2981 19.4788 34.8262 19.4785H40.0439ZM34.9238 6.07715C35.2973 5.70405 35.9019 5.70405 36.2754 6.07715C36.6488 6.45059 36.6496 7.05612 36.2764 7.42969L32.5869 11.1191C32.2134 11.4927 31.6069 11.4927 31.2334 11.1191C30.8602 10.7456 30.8609 10.14 31.2344 9.7666L34.9238 6.07715ZM4.6709 6.02441C5.04447 5.6512 5.65098 5.65098 6.02441 6.02441L9.71387 9.71387C10.087 10.0873 10.0869 10.6929 9.71387 11.0664C9.34059 11.4397 8.73494 11.4401 8.36133 11.0674L4.6709 7.37695C4.29795 7.00352 4.29796 6.39785 4.6709 6.02441ZM20.4355 0C20.9635 0.000321047 21.3916 0.428954 21.3916 0.957031V6.1748C21.3912 6.70255 20.9633 7.13054 20.4355 7.13086C19.9075 7.13086 19.4789 6.70275 19.4785 6.1748V0.957031C19.4785 0.428756 19.9073 0 20.4355 0Z" fill="#F6D100"/>
</svg>
