<svg width="30" height="22" viewBox="0 0 30 22" fill="none" xmlns="http://www.w3.org/2000/svg">
<path d="M15 1.33301C19.0137 1.33301 22.6843 3.76161 25.3809 6.24512C26.7232 7.48138 27.8108 8.71897 28.5625 9.64746C28.9379 10.1111 29.2289 10.4972 29.4258 10.7666C29.4926 10.8581 29.5481 10.937 29.5928 11C29.5481 11.063 29.4926 11.1419 29.4258 11.2334C29.2289 11.5028 28.9379 11.8889 28.5625 12.3525C27.8108 13.281 26.7232 14.5186 25.3809 15.7549C22.6843 18.2384 19.0137 20.667 15 20.667C10.9863 20.667 7.3157 18.2384 4.61914 15.7549C3.27682 14.5186 2.18925 13.281 1.4375 12.3525C1.06214 11.8889 0.771127 11.5028 0.574219 11.2334C0.507227 11.1417 0.450972 11.0631 0.40625 11C0.450972 10.9369 0.507227 10.8583 0.574219 10.7666C0.771127 10.4972 1.06214 10.1111 1.4375 9.64746C2.18925 8.71897 3.27682 7.48138 4.61914 6.24512C7.3157 3.76161 10.9863 1.33301 15 1.33301Z" stroke="#464646" stroke-width="0.666667"/>
<circle cx="15.3334" cy="10.9997" r="6.33333" stroke="#464646" stroke-width="0.666667"/>
<circle cx="15.3333" cy="11" r="2" fill="#464646"/>
<line x1="4.64645" y1="21.6464" x2="25.6464" y2="0.646447" stroke="#464646"/>
</svg>
