<svg width="20" height="20" viewBox="0 0 20 20" fill="none" xmlns="http://www.w3.org/2000/svg">
<path d="M7.42676 0.00878906C11.1586 0.198048 14.1259 3.28437 14.126 7.06348C14.126 8.77038 13.5204 10.3356 12.5127 11.5566C12.5818 11.598 12.6475 11.6475 12.707 11.707L18.7842 17.7852C19.1747 18.1757 19.1747 18.8087 18.7842 19.1992C18.3937 19.5896 17.7606 19.5897 17.3701 19.1992L11.293 13.1221C11.213 13.0421 11.1497 12.9516 11.1025 12.8555C9.9577 13.6555 8.56613 14.1269 7.06348 14.127L6.69922 14.1182C2.96748 13.9288 0 10.8426 0 7.06348C0.000109255 3.16241 3.16269 0 7.06348 0L7.42676 0.00878906ZM7.06348 2C4.26741 2 2.00011 4.26683 2 7.06348C2 9.86022 4.26734 12.127 7.06348 12.127C9.85945 12.1268 12.126 9.8601 12.126 7.06348C12.1259 4.26695 9.85938 2.00019 7.06348 2Z" fill="#464646"/>
</svg>
