<svg width="16" height="20" viewBox="0 0 17 20" fill="none" xmlns="http://www.w3.org/2000/svg">
<path d="M15.1971 0.359131C15.551 -0.0647785 16.1823 -0.121586 16.6063 0.232178C17.03 0.585992 17.0868 1.21644 16.7333 1.64038L9.78503 9.96753L16.7343 18.2966C17.088 18.7207 17.0313 19.351 16.6073 19.7048C16.1834 20.0584 15.5529 20.0016 15.1991 19.5779L8.4823 11.5281L1.76746 19.5779C1.41361 20.0016 0.783204 20.0585 0.359253 19.7048C-0.0647827 19.351 -0.12142 18.7207 0.2323 18.2966L7.18054 9.96753L0.2323 1.64038C-0.121513 1.21635 -0.0647325 0.586023 0.359253 0.232178C0.783261 -0.121619 1.4136 -0.0648012 1.76746 0.359131L8.4823 8.40698L15.1971 0.359131Z" fill="#464646"/>
</svg>
